# xmcd
#
# Track frame offsets:
#	150
#	83555
#	146772
#	182157
#	229430
#
# Disc length: 3727 seconds
#
# Revision: 4
# Processed by: cddbd v1.5.2PL0 Copyright (c) Steve Scherf et al.
# Submitted via: EasyCDDAExtractor 16.0.6.1
#
DISCID=3f0e8d05
DTITLE=Βυζ. χορωδία υπό Κώστα Ζορμπά - Βυζαντινή μουσική 05-Ύμνοι Θεοτόκου
DYEAR=2008
DGENRE=Βυζ. Εκκλησιαστική
TTITLE0=Καταβασίες 9ης ωδής
TTITLE1=Δοξαστικόν Κοιμήσεως Θεοτόκου
TTITLE2=Τε ρι ρεμ-Επί σοι χαίρει 
TTITLE3=Θεοτόκε Παρθένε [οκτάηχον]
TTITLE4=Ύμνοι του Ακαθίστου
EXTD=
EXTT0=
EXTT1=
EXTT2=
EXTT3=
EXTT4=
PLAYORDER=
